<svg width="1440" height="840" viewBox="0 0 1440 840" fill="none" xmlns="http://www.w3.org/2000/svg">
<g opacity="0.1">
<path d="M457.966 273.851H348.801V730.176H457.966V273.851Z" fill="#7072EA"/>
<path d="M440.131 241.216H366.634V433.054H440.131V241.216Z" fill="#7072EA"/>
<path d="M423.649 220.5H382.847V326.919H423.649V220.5Z" fill="#7072EA"/>
<path d="M417.164 274.986H389.332V202.621H399.6H409.328H417.164V274.986Z" fill="#7072EA"/>
<path d="M401.492 243.486H398.52V171.121H399.6H400.681H401.492V243.486Z" fill="#7072EA"/>
<path d="M408.248 218.513H405.275V145.865H406.356H407.437H408.248V218.513Z" fill="#7072EA"/>
<path d="M460.939 272.716H345.828V277.54H460.939V272.716Z" fill="#7072EA"/>
<path d="M442.834 238.662H363.932V243.202H442.834V238.662Z" fill="#7072EA"/>
<path d="M425.271 218.513H379.875V222.202H425.271V218.513Z" fill="#7072EA"/>
<path opacity="0.29" d="M376.902 248.878H373.39V269.027H376.902V248.878Z" fill="#7072EA"/>
<path opacity="0.29" d="M386.359 248.878H382.847V269.027H386.359V248.878Z" fill="#7072EA"/>
<path opacity="0.29" d="M395.817 248.878H392.305V269.027H395.817V248.878Z" fill="#7072EA"/>
<path opacity="0.29" d="M405.274 248.878H401.762V269.027H405.274V248.878Z" fill="#7072EA"/>
<path opacity="0.29" d="M414.732 248.878H411.22V269.027H414.732V248.878Z" fill="#7072EA"/>
<path opacity="0.29" d="M424.189 248.878H420.677V269.027H424.189V248.878Z" fill="#7072EA"/>
<path opacity="0.29" d="M433.647 248.878H430.135V269.027H433.647V248.878Z" fill="#7072EA"/>
<path d="M366.634 292.013H358.258V315.851H366.634V292.013Z" fill="#7072EA"/>
<path opacity="0.29" d="M383.117 292.013H374.74V315.851H383.117V292.013Z" fill="#7072EA"/>
<path d="M399.33 292.013H390.953V315.851H399.33V292.013Z" fill="#7072EA"/>
<path d="M415.813 292.013H407.437V315.851H415.813V292.013Z" fill="#7072EA"/>
<path d="M432.026 292.013H423.649V315.851H432.026V292.013Z" fill="#7072EA"/>
<path d="M448.508 292.013H440.132V315.851H448.508V292.013Z" fill="#7072EA"/>
<path d="M366.634 329.189H358.258V353.027H366.634V329.189Z" fill="#7072EA"/>
<path d="M383.117 329.189H374.74V353.027H383.117V329.189Z" fill="#7072EA"/>
<path d="M399.33 329.189H390.953V353.027H399.33V329.189Z" fill="#7072EA"/>
<path opacity="0.29" d="M415.813 329.189H407.437V353.027H415.813V329.189Z" fill="#7072EA"/>
<path d="M432.026 329.189H423.649V353.027H432.026V329.189Z" fill="#7072EA"/>
<path d="M448.508 329.189H440.132V353.027H448.508V329.189Z" fill="#7072EA"/>
<path d="M366.634 366.365H358.258V390.202H366.634V366.365Z" fill="#7072EA"/>
<path d="M383.117 366.365H374.74V390.202H383.117V366.365Z" fill="#7072EA"/>
<path d="M399.33 366.365H390.953V390.202H399.33V366.365Z" fill="#7072EA"/>
<path d="M415.813 366.365H407.437V390.202H415.813V366.365Z" fill="#7072EA"/>
<path opacity="0.29" d="M432.026 366.365H423.649V390.202H432.026V366.365Z" fill="#7072EA"/>
<path opacity="0.29" d="M448.508 366.365H440.132V390.202H448.508V366.365Z" fill="#7072EA"/>
<path opacity="0.29" d="M366.634 403.54H358.258V427.378H366.634V403.54Z" fill="#7072EA"/>
<path d="M383.117 403.54H374.74V427.378H383.117V403.54Z" fill="#7072EA"/>
<path d="M399.33 403.54H390.953V427.378H399.33V403.54Z" fill="#7072EA"/>
<path d="M415.813 403.54H407.437V427.378H415.813V403.54Z" fill="#7072EA"/>
<path d="M432.026 403.54H423.649V427.378H432.026V403.54Z" fill="#7072EA"/>
<path d="M448.508 403.54H440.132V427.378H448.508V403.54Z" fill="#7072EA"/>
<path d="M366.634 440.716H358.258V464.554H366.634V440.716Z" fill="#7072EA"/>
<path opacity="0.29" d="M383.117 440.716H374.74V464.554H383.117V440.716Z" fill="#7072EA"/>
<path d="M399.33 440.716H390.953V464.554H399.33V440.716Z" fill="#7072EA"/>
<path opacity="0.29" d="M415.813 440.716H407.437V464.554H415.813V440.716Z" fill="#7072EA"/>
<path d="M432.026 440.716H423.649V464.554H432.026V440.716Z" fill="#7072EA"/>
<path d="M448.508 440.716H440.132V464.554H448.508V440.716Z" fill="#7072EA"/>
<path d="M366.634 477.892H358.258V501.729H366.634V477.892Z" fill="#7072EA"/>
<path d="M383.117 477.892H374.74V501.729H383.117V477.892Z" fill="#7072EA"/>
<path d="M399.33 477.892H390.953V501.729H399.33V477.892Z" fill="#7072EA"/>
<path d="M415.813 477.892H407.437V501.729H415.813V477.892Z" fill="#7072EA"/>
<path d="M432.026 477.892H423.649V501.729H432.026V477.892Z" fill="#7072EA"/>
<path opacity="0.29" d="M448.508 477.892H440.132V501.729H448.508V477.892Z" fill="#7072EA"/>
<path d="M366.634 515.067H358.258V538.905H366.634V515.067Z" fill="#7072EA"/>
<path opacity="0.29" d="M383.117 515.067H374.74V538.905H383.117V515.067Z" fill="#7072EA"/>
<path opacity="0.29" d="M399.33 515.067H390.953V538.905H399.33V515.067Z" fill="#7072EA"/>
<path d="M415.813 515.067H407.437V538.905H415.813V515.067Z" fill="#7072EA"/>
<path d="M432.026 515.067H423.649V538.905H432.026V515.067Z" fill="#7072EA"/>
<path d="M448.508 515.067H440.132V538.905H448.508V515.067Z" fill="#7072EA"/>
<path d="M366.634 552.243H358.258V576.081H366.634V552.243Z" fill="#7072EA"/>
<path d="M383.117 552.243H374.74V576.081H383.117V552.243Z" fill="#7072EA"/>
<path d="M399.33 552.243H390.953V576.081H399.33V552.243Z" fill="#7072EA"/>
<path d="M415.813 552.243H407.437V576.081H415.813V552.243Z" fill="#7072EA"/>
<path opacity="0.29" d="M432.026 552.243H423.649V576.081H432.026V552.243Z" fill="#7072EA"/>
<path d="M448.508 552.243H440.132V576.081H448.508V552.243Z" fill="#7072EA"/>
<path d="M366.634 589.419H358.258V613.257H366.634V589.419Z" fill="#7072EA"/>
<path opacity="0.29" d="M383.117 589.419H374.74V613.257H383.117V589.419Z" fill="#7072EA"/>
<path d="M399.33 589.419H390.953V613.257H399.33V589.419Z" fill="#7072EA"/>
<path d="M415.813 589.419H407.437V613.257H415.813V589.419Z" fill="#7072EA"/>
<path d="M432.026 589.419H423.649V613.257H432.026V589.419Z" fill="#7072EA"/>
<path d="M448.508 589.419H440.132V613.257H448.508V589.419Z" fill="#7072EA"/>
<path d="M366.634 626.594H358.258V650.432H366.634V626.594Z" fill="#7072EA"/>
<path d="M383.117 626.594H374.74V650.432H383.117V626.594Z" fill="#7072EA"/>
<path d="M399.33 626.594H390.953V650.432H399.33V626.594Z" fill="#7072EA"/>
<path opacity="0.29" d="M415.813 626.594H407.437V650.432H415.813V626.594Z" fill="#7072EA"/>
<path d="M432.026 626.594H423.649V650.432H432.026V626.594Z" fill="#7072EA"/>
<path opacity="0.29" d="M448.508 626.594H440.132V650.432H448.508V626.594Z" fill="#7072EA"/>
<path opacity="0.29" d="M366.634 663.77H358.258V687.608H366.634V663.77Z" fill="#7072EA"/>
<path d="M383.117 663.77H374.74V687.608H383.117V663.77Z" fill="#7072EA"/>
<path opacity="0.29" d="M399.33 663.77H390.953V687.608H399.33V663.77Z" fill="#7072EA"/>
<path d="M415.813 663.77H407.437V687.608H415.813V663.77Z" fill="#7072EA"/>
<path d="M432.026 663.77H423.649V687.608H432.026V663.77Z" fill="#7072EA"/>
<path d="M448.508 663.77H440.132V687.608H448.508V663.77Z" fill="#7072EA"/>
<path d="M207.21 291.162H31.8418V675.689H207.21V291.162Z" fill="#7072EA"/>
<path d="M212.074 284.635H26.708V295.419H212.074V284.635Z" fill="#7072EA"/>
<path d="M201.265 270.729H37.5166V322.378H201.265V270.729Z" fill="#7072EA"/>
<path d="M115.067 249.446H50.2158V305.919H115.067V249.446Z" fill="#7072EA"/>
<path d="M87.7753 265.338H50.2158V235.824H76.9668L87.7753 265.338Z" fill="#7072EA"/>
<path d="M68.8614 211.135H65.3486V277.257H68.8614V211.135Z" fill="#7072EA"/>
<path d="M70.4822 207.73C70.4822 209.716 69.1311 211.135 67.2396 211.135C65.3481 211.135 63.9971 209.716 63.9971 207.73C63.9971 205.743 65.3481 204.324 67.2396 204.324C68.8609 204.324 70.4822 205.743 70.4822 207.73Z" fill="#7072EA"/>
<path d="M822.213 381.973V193.257H792.219V142.459H781.411V68.3919H722.234V13.6216H716.83V68.3919H705.211V0H700.077V68.3919H662.517V193.257H643.062V381.973H626.579V726.203H834.102V381.973H822.213Z" fill="#7072EA"/>
<path d="M2081.67 697.824H-213.511V755.149H2081.67V697.824Z" fill="#7072EA"/>
<path d="M1137.55 741.243H1035.68L1075.4 527.554H1137.55V741.243Z" fill="#6265F0"/>
<path d="M2113.83 749.473H-295.926V840H2113.83V749.473Z" fill="#6265F0"/>
<path d="M1054.05 345.649V250.865H1021.63V214.824H1004.07V184.743H997.851V132.811H996.229V184.743H990.285V214.824H972.721V250.865H940.295V345.649H933.54V517.622H883.551V713.716H933.54H983.8H1060.54V345.649H1054.05Z" fill="#6265F0"/>
<path d="M1241.58 454.338H1083.78V457.459H1090.8V737.838H1234.56V457.459H1241.58V454.338Z" fill="#6265F0"/>
<path d="M521.466 524.433H381.496V757.987H521.466V524.433Z" fill="#6265F0"/>
<path d="M360.15 643.906H119.391V757.987H360.15V643.906Z" fill="#6265F0"/>
<path d="M301.513 389.351H248.552V669.162H301.513V389.351Z" fill="#6265F0"/>
<path d="M262.873 314.716H260.171V466.824H262.873V314.716Z" fill="#6265F0"/>
<path d="M271.79 326.352H269.088V478.46H271.79V326.352Z" fill="#6265F0"/>
<path d="M285.03 372.041H252.604V409.5H285.03V372.041Z" fill="#6265F0"/>
<path d="M443.104 566.148H350.962V757.986H443.104V566.148Z" fill="#6265F0"/>
<path d="M716.83 363.243H544.164V757.986H716.83V363.243Z" fill="#6265F0"/>
<path d="M700.077 349.622H561.188V415.459H700.077V349.622Z" fill="#6265F0"/>
<path d="M730.07 371.473H530.653V376.014H730.07V371.473Z" fill="#6265F0"/>
<path d="M594.153 558.487H512.819V757.987H594.153V558.487Z" fill="#6265F0"/>
<path d="M23.4651 551.108H-70.0283V757.987H23.4651V551.108Z" fill="#6265F0"/>
<path d="M146.412 494.635H-39.7646V757.987H146.412V494.635Z" fill="#6265F0"/>
<path d="M151.275 484.703H-50.5732V494.919H151.275V484.703Z" fill="#6265F0"/>
<path d="M50.2161 457.176H-31.6582V510.527H50.2161V457.176Z" fill="#6265F0"/>
<path d="M90.7476 457.176H76.9668V489.527H90.7476V457.176Z" fill="#6265F0"/>
<path d="M119.391 457.176H104.259V489.527H119.391V457.176Z" fill="#6265F0"/>
<path d="M1672.03 669.162H699.807V757.986H1672.03V669.162Z" fill="#6265F0"/>
<path d="M1594.48 423.689C1588.26 423.689 1583.4 428.514 1582.86 435.041L1569.08 434.473C1569.08 433.054 1569.08 431.635 1569.08 430.216C1569.08 412.338 1566.11 395.027 1560.43 378.568L1571.78 374.027C1573.67 378.284 1577.73 381.406 1582.59 381.406C1589.07 381.406 1594.21 376.014 1594.21 369.203C1594.21 362.392 1589.07 357 1582.59 357C1576.1 357 1570.97 362.392 1570.97 369.203C1570.97 370.338 1571.24 371.757 1571.51 372.892L1560.16 377.433C1553.68 358.987 1543.68 342.243 1530.71 327.487L1539.63 318.689C1541.79 320.676 1544.49 322.095 1547.73 322.095C1554.22 322.095 1559.35 316.703 1559.35 309.892C1559.35 303.081 1554.22 297.689 1547.73 297.689C1541.25 297.689 1536.11 303.081 1536.11 309.892C1536.11 313.014 1537.19 315.568 1538.82 317.838L1529.9 326.635C1529.09 325.5 1528.01 324.649 1527.2 323.514C1513.69 309.324 1498.01 298.257 1480.72 290.879L1485.58 278.392C1486.66 278.676 1488.02 278.96 1489.1 278.96C1495.58 278.96 1500.72 273.568 1500.72 266.757C1500.72 259.946 1495.58 254.554 1489.1 254.554C1482.61 254.554 1477.48 259.946 1477.48 266.757C1477.48 271.865 1480.45 276.122 1484.5 278.108L1479.64 290.595C1464.24 284.068 1447.75 280.379 1430.73 279.811L1431.27 262.5H1431.54C1438.03 262.5 1443.16 257.108 1443.16 250.297C1443.16 243.487 1438.03 238.095 1431.54 238.095C1425.06 238.095 1419.92 243.487 1419.92 250.297C1419.92 256.541 1424.25 261.649 1429.92 262.5L1429.38 279.811C1428.03 279.811 1426.68 279.811 1425.33 279.811C1409.11 279.811 1393.17 282.649 1378.04 288.041L1373.45 274.135C1377.77 272.433 1380.74 267.892 1380.74 262.784C1380.74 255.973 1375.61 250.581 1369.12 250.581C1362.64 250.581 1357.5 255.973 1357.5 262.784C1357.5 269.595 1362.64 274.987 1369.12 274.987C1370.2 274.987 1371.28 274.703 1372.36 274.419L1376.96 288.324C1358.85 295.135 1341.83 305.919 1327.51 320.108L1318.86 310.46C1320.75 308.189 1321.84 305.351 1321.84 302.23C1321.84 295.419 1316.7 290.027 1310.22 290.027C1303.73 290.027 1298.6 295.419 1298.6 302.23C1298.6 309.041 1303.73 314.433 1310.22 314.433C1313.19 314.433 1315.89 313.297 1317.78 311.311L1326.43 320.96C1325.35 321.811 1324.54 322.946 1323.46 323.797C1311.3 336.568 1301.84 351.041 1294.81 366.649L1284.01 361.257C1284.28 360.122 1284.55 358.703 1284.55 357.284C1284.55 350.473 1279.41 345.081 1272.93 345.081C1266.44 345.081 1261.31 350.473 1261.31 357.284C1261.31 364.095 1266.44 369.487 1272.93 369.487C1277.52 369.487 1281.57 366.649 1283.46 362.392L1294.27 367.5C1286.44 385.379 1282.11 404.676 1281.57 424.824L1267.52 424.257C1267.25 417.73 1262.12 412.338 1255.9 412.338C1249.42 412.338 1244.28 417.73 1244.28 424.541C1244.28 431.352 1249.42 436.743 1255.9 436.743C1262.12 436.743 1266.98 431.919 1267.52 425.392L1281.57 425.96C1281.57 427.379 1281.57 428.797 1281.57 430.216C1281.57 448.095 1284.55 465.406 1290.22 481.865L1278.87 486.406C1276.98 482.149 1272.93 479.027 1268.06 479.027C1261.58 479.027 1256.44 484.419 1256.44 491.23C1256.44 498.041 1261.58 503.433 1268.06 503.433C1274.55 503.433 1279.68 498.041 1279.68 491.23C1279.68 490.095 1279.41 488.676 1279.14 487.541L1290.49 483C1296.98 501.446 1306.97 518.189 1319.94 532.946L1311.03 541.743C1308.86 539.757 1306.16 538.338 1302.92 538.338C1296.44 538.338 1291.3 543.73 1291.3 550.541C1291.3 557.352 1296.44 562.743 1302.92 562.743C1309.41 562.743 1314.54 557.352 1314.54 550.541C1314.54 547.419 1313.46 544.865 1311.84 542.595L1320.75 533.797C1321.56 534.933 1322.65 535.784 1323.46 536.919C1332.64 546.568 1342.64 554.514 1353.72 561.324L1283.19 697.824H1270.49V701.797H1264.28V709.46H1586.1V701.797H1579.89V697.824H1567.19L1496.93 561.608C1506.39 555.933 1515.04 549.122 1523.14 541.176L1534.49 553.946C1532.06 556.216 1530.44 559.622 1530.44 563.311C1530.44 570.122 1535.57 575.514 1542.06 575.514C1548.54 575.514 1553.68 570.122 1553.68 563.311C1553.68 556.5 1548.54 551.108 1542.06 551.108C1539.63 551.108 1537.19 551.96 1535.3 553.379L1523.68 540.608C1524.76 539.757 1525.58 538.622 1526.66 537.77C1538.82 525 1548.27 510.527 1555.3 494.919L1568 501.162C1567.73 502.014 1567.73 503.149 1567.73 504.284C1567.73 511.095 1572.86 516.487 1579.35 516.487C1585.83 516.487 1590.97 511.095 1590.97 504.284C1590.97 497.473 1585.83 492.081 1579.35 492.081C1574.21 492.081 1570.16 495.487 1568.54 500.027L1556.11 494.068C1563.95 476.189 1568.27 456.892 1568.81 436.743L1582.59 437.311C1582.86 443.838 1587.99 449.23 1594.21 449.23C1600.69 449.23 1605.83 443.838 1605.83 437.027C1606.37 429.365 1600.96 423.689 1594.48 423.689ZM1565.57 430.216C1565.57 431.635 1565.57 433.054 1565.57 434.189L1525.3 432.77C1525.3 431.919 1525.3 431.068 1525.3 429.933C1525.3 417.446 1523.14 405.527 1519.36 394.46L1557.19 379.703C1562.59 395.879 1565.57 412.906 1565.57 430.216ZM1523.14 433.054L1433.16 429.933C1433.16 429.365 1433.16 428.797 1432.89 428.23L1517.2 395.595C1520.98 406.378 1522.87 418.297 1522.87 430.5C1523.14 431.068 1523.14 431.919 1523.14 433.054ZM1327.51 427.662L1417.49 430.784C1417.49 431.352 1417.49 431.919 1417.76 432.487L1333.45 465.122C1329.67 454.338 1327.78 442.419 1327.78 430.216C1327.51 429.365 1327.51 428.514 1327.51 427.662ZM1431.54 425.108L1497.2 360.406C1505.58 370.054 1512.6 381.406 1516.93 393.892L1432.62 426.527C1432.35 426.243 1431.81 425.676 1431.54 425.108ZM1430.73 424.257C1430.19 423.689 1429.65 423.406 1429.11 423.122L1463.16 335.716C1475.86 341.392 1486.93 349.622 1496.39 359.838L1430.73 424.257ZM1427.76 422.27C1427.22 421.987 1426.68 421.987 1426.41 421.987L1429.38 327.487C1441 328.054 1451.81 330.608 1462.08 334.865L1427.76 422.27ZM1425.06 421.987C1424.52 421.987 1423.98 421.987 1423.43 422.27L1393.44 333.162C1403.44 329.473 1414.25 327.487 1425.33 327.487C1426.14 327.487 1426.95 327.487 1427.76 327.487L1425.06 421.987ZM1422.08 422.838C1421.54 423.122 1421 423.406 1420.46 423.973L1359.12 355.014C1368.58 345.649 1379.93 338.554 1392.36 333.73L1422.08 422.838ZM1419.65 424.824C1419.38 425.392 1418.84 425.676 1418.57 426.243L1336.97 386.514C1342.1 374.879 1349.4 364.379 1358.04 355.865L1419.65 424.824ZM1418.03 427.379C1417.76 427.946 1417.76 428.514 1417.49 429.365L1327.51 426.243C1328.05 412.622 1331.02 399.568 1336.16 387.933L1418.03 427.379ZM1418.3 433.622C1418.57 434.189 1418.84 434.473 1419.11 435.041L1418.57 436.176L1353.72 500.027C1345.07 490.379 1338.32 479.027 1333.99 466.541L1418.3 433.622ZM1416.41 439.865L1375.61 518.757C1367.77 513.933 1360.48 507.973 1354.26 500.879L1416.41 439.865ZM1421 437.027C1421.27 437.311 1421.54 437.311 1421.81 437.595L1387.5 525C1384.25 523.581 1381.01 521.879 1378.04 520.176L1421 437.027ZM1422.89 438.162C1423.43 438.446 1423.98 438.446 1424.25 438.446L1421.27 532.946C1409.65 532.379 1398.85 529.824 1388.58 525.568L1422.89 438.162ZM1425.33 532.946C1424.52 532.946 1423.71 532.946 1422.89 532.946L1425.87 438.446C1426.41 438.446 1426.95 438.446 1427.49 438.162L1457.48 527.27C1447.21 530.96 1436.41 532.946 1425.33 532.946ZM1428.57 437.879C1429.11 437.595 1429.38 437.311 1429.92 437.027L1472.88 520.176C1468.29 522.73 1463.7 525 1458.56 526.987L1428.57 437.879ZM1435.86 442.987L1491.8 505.703C1486.66 510.811 1480.99 515.068 1475.05 518.757L1435.86 442.987ZM1433.43 438.162L1431.81 435.041C1432.08 434.757 1432.08 434.473 1432.35 434.189L1513.96 473.919C1508.82 485.554 1501.53 496.054 1492.88 504.568L1433.43 438.162ZM1432.62 433.054C1432.89 432.487 1432.89 431.919 1433.16 431.068L1523.14 434.189C1522.6 447.811 1519.63 460.865 1514.5 472.5L1432.62 433.054ZM1386.96 526.987L1371.55 566.149C1366.96 564.162 1362.37 561.892 1357.77 559.338L1376.96 522.162C1380.2 523.865 1383.44 525.568 1386.96 526.987ZM1388.04 527.554C1398.31 532.095 1409.65 534.649 1421.54 534.933L1420.19 577.216C1403.71 576.649 1387.77 572.96 1372.63 566.716L1388.04 527.554ZM1422.89 534.933C1423.71 534.933 1424.52 534.933 1425.6 534.933C1436.95 534.933 1448.02 532.946 1458.02 529.257L1471.53 569.27C1456.94 574.662 1441.54 577.216 1425.6 577.216C1424.25 577.216 1422.89 577.216 1421.81 577.216L1422.89 534.933ZM1459.1 528.973C1464.24 526.987 1469.1 524.716 1473.69 522.162L1492.88 559.338C1486.39 563.027 1479.64 566.433 1472.61 568.987L1459.1 528.973ZM1556.65 378.851L1518.82 393.608C1514.23 380.838 1507.2 369.203 1498.55 359.27L1528.01 330.324C1540.71 344.514 1550.43 360.973 1556.65 378.851ZM1524.49 326.351C1525.3 327.203 1526.39 328.338 1527.2 329.189L1497.74 358.135C1488.29 347.635 1476.67 339.122 1463.97 333.446L1479.37 294.284C1495.85 301.662 1511.25 312.446 1524.49 326.351ZM1478.02 293.716L1462.62 332.879C1452.35 328.338 1441 325.784 1429.11 325.5L1430.46 283.216C1446.94 283.784 1463.16 287.473 1478.02 293.716ZM1425.33 283.216C1426.68 283.216 1428.03 283.216 1429.11 283.216L1427.76 325.5C1426.95 325.5 1426.14 325.5 1425.06 325.5C1413.71 325.5 1402.63 327.487 1392.63 331.176L1379.12 291.162C1393.98 286.054 1409.38 283.216 1425.33 283.216ZM1378.04 291.73L1391.55 331.743C1378.85 336.568 1367.23 343.946 1357.5 353.311L1329.94 322.379C1344.26 308.757 1360.48 298.257 1378.04 291.73ZM1326.43 326.351C1327.24 325.5 1328.32 324.365 1329.13 323.514L1356.69 354.446C1347.78 363.243 1340.48 374.027 1335.08 385.946L1298.33 368.068C1305.08 352.743 1314.54 338.554 1326.43 326.351ZM1297.79 369.203L1334.54 387.081C1329.4 399 1326.16 412.338 1325.62 426.243L1285.36 424.824C1286.17 405.243 1290.22 386.514 1297.79 369.203ZM1285.36 430.216C1285.36 428.797 1285.36 427.379 1285.36 426.243L1325.62 427.662C1325.62 428.514 1325.62 429.365 1325.62 430.5C1325.62 442.987 1327.78 454.906 1331.56 465.973L1293.73 480.73C1288.06 464.554 1285.36 447.811 1285.36 430.216ZM1294 481.865L1331.83 467.108C1336.43 479.879 1343.45 491.514 1352.1 501.446L1322.65 530.392C1309.95 516.203 1300.49 499.743 1294 481.865ZM1326.43 534.365C1325.62 533.514 1324.54 532.379 1323.73 531.527L1353.18 502.581C1359.66 509.676 1366.96 515.919 1375.07 520.743L1355.88 558.203C1345.07 551.392 1335.08 543.73 1326.43 534.365ZM1564.49 697.824H1286.17L1355.88 562.743C1360.48 565.297 1365.07 567.852 1369.93 569.838L1365.07 582.324C1363.99 582.041 1362.64 581.757 1361.56 581.757C1355.07 581.757 1349.94 587.149 1349.94 593.96C1349.94 600.77 1355.07 606.162 1361.56 606.162C1368.04 606.162 1373.18 600.77 1373.18 593.96C1373.18 588.852 1370.2 584.595 1366.15 582.608L1371.01 570.122C1386.42 576.649 1402.9 580.338 1419.92 580.906L1419.65 593.676C1413.44 593.96 1408.3 599.352 1408.3 605.879C1408.3 612.689 1413.44 618.081 1419.92 618.081C1426.41 618.081 1431.54 612.689 1431.54 605.879C1431.54 599.352 1426.95 594.243 1421 593.676L1421.27 580.906C1422.62 580.906 1423.98 580.906 1425.33 580.906C1441.54 580.906 1457.48 578.068 1472.61 572.676L1476.94 585.162C1472.88 587.149 1470.18 591.406 1470.18 596.23C1470.18 603.041 1475.32 608.433 1481.8 608.433C1488.29 608.433 1493.42 603.041 1493.42 596.23C1493.42 589.419 1488.29 584.027 1481.8 584.027C1480.45 584.027 1479.1 584.311 1478.02 584.595L1473.96 572.108C1481.26 569.27 1488.29 566.149 1494.77 562.176L1564.49 697.824ZM1495.04 557.919L1475.86 520.46C1482.07 516.77 1487.75 512.23 1493.15 507.122L1520.71 538.054C1512.88 545.716 1504.23 552.527 1495.04 557.919ZM1524.49 534.365C1523.68 535.216 1522.6 536.352 1521.79 537.203L1494.23 506.27C1503.15 497.473 1510.44 486.689 1515.85 474.77L1552.6 492.649C1545.57 507.973 1536.11 521.879 1524.49 534.365ZM1552.87 491.23L1516.12 473.352C1521.25 461.433 1524.49 448.095 1525.03 434.189L1565.3 435.608C1564.76 455.189 1560.43 473.919 1552.87 491.23Z" fill="#6265F0"/>
<path d="M1252.93 596.23H1168.62V713.716H1252.93V596.23Z" fill="#6265F0"/>
<path d="M1295.62 408.932H1168.35V839.999H1295.62V408.932Z" fill="#484BF2"/>
<path d="M1305.08 411.486H1158.63V415.742H1305.08V411.486Z" fill="#484BF2"/>
<path d="M1301.03 471.932H1162.68V476.188H1301.03V471.932Z" fill="#484BF2"/>
<path d="M1301.03 530.675H1162.68V534.932H1301.03V530.675Z" fill="#484BF2"/>
<path d="M1301.03 589.134H1162.68V593.391H1301.03V589.134Z" fill="#484BF2"/>
<path d="M1301.03 647.877H1162.68V652.134H1301.03V647.877Z" fill="#484BF2"/>
<path d="M1301.03 706.621H1162.68V710.877H1301.03V706.621Z" fill="#484BF2"/>
<path d="M1301.03 765.08H1162.68V769.337H1301.03V765.08Z" fill="#484BF2"/>
<path d="M1309.95 399.567H1154.03V411.486H1309.95V399.567Z" fill="#484BF2"/>
<path opacity="0.29" d="M1192.94 429.932H1179.7V464.269H1192.94V429.932Z" fill="#484BF2"/>
<path d="M1222.67 429.932H1209.43V464.269H1222.67V429.932Z" fill="#484BF2"/>
<path d="M1252.12 429.932H1238.88V464.269H1252.12V429.932Z" fill="#484BF2"/>
<path d="M1281.84 429.932H1268.6V464.269H1281.84V429.932Z" fill="#484BF2"/>
<path d="M1192.94 486.121H1179.7V520.459H1192.94V486.121Z" fill="#484BF2"/>
<path opacity="0.29" d="M1222.67 486.121H1209.43V520.459H1222.67V486.121Z" fill="#484BF2"/>
<path d="M1252.12 486.121H1238.88V520.459H1252.12V486.121Z" fill="#484BF2"/>
<path d="M1281.84 486.121H1268.6V520.459H1281.84V486.121Z" fill="#484BF2"/>
<path d="M1192.94 544.864H1179.7V579.202H1192.94V544.864Z" fill="#484BF2"/>
<path d="M1222.67 544.864H1209.43V579.202H1222.67V544.864Z" fill="#484BF2"/>
<path d="M1252.12 544.864H1238.88V579.202H1252.12V544.864Z" fill="#484BF2"/>
<path opacity="0.29" d="M1281.84 544.864H1268.6V579.202H1281.84V544.864Z" fill="#484BF2"/>
<path d="M1192.94 603.607H1179.7V637.945H1192.94V603.607Z" fill="#484BF2"/>
<path opacity="0.29" d="M1222.67 603.607H1209.43V637.945H1222.67V603.607Z" fill="#484BF2"/>
<path opacity="0.29" d="M1252.12 603.607H1238.88V637.945H1252.12V603.607Z" fill="#484BF2"/>
<path d="M1281.84 603.607H1268.6V637.945H1281.84V603.607Z" fill="#484BF2"/>
<path opacity="0.29" d="M1192.94 662.067H1179.7V696.404H1192.94V662.067Z" fill="#484BF2"/>
<path d="M1222.67 662.067H1209.43V696.404H1222.67V662.067Z" fill="#484BF2"/>
<path d="M1252.12 662.067H1238.88V696.404H1252.12V662.067Z" fill="#484BF2"/>
<path d="M1281.84 662.067H1268.6V696.404H1281.84V662.067Z" fill="#484BF2"/>
<path d="M1192.94 720.81H1179.7V755.148H1192.94V720.81Z" fill="#484BF2"/>
<path d="M1222.67 720.81H1209.43V755.148H1222.67V720.81Z" fill="#484BF2"/>
<path opacity="0.29" d="M1252.12 720.81H1238.88V755.148H1252.12V720.81Z" fill="#484BF2"/>
<path d="M1281.84 720.81H1268.6V755.148H1281.84V720.81Z" fill="#484BF2"/>
<path d="M1192.94 779.553H1179.7V813.891H1192.94V779.553Z" fill="#484BF2"/>
<path opacity="0.29" d="M1222.67 779.553H1209.43V813.891H1222.67V779.553Z" fill="#484BF2"/>
<path d="M1252.12 779.553H1238.88V813.891H1252.12V779.553Z" fill="#484BF2"/>
<path opacity="0.29" d="M1281.84 779.553H1268.6V813.891H1281.84V779.553Z" fill="#484BF2"/>
<path d="M1219.42 383.107H1176.19V405.526H1219.42V383.107Z" fill="#484BF2"/>
<path d="M1222.67 382.54H1173.49V386.229H1222.67V382.54Z" fill="#484BF2"/>
<path d="M985.692 840H816.269V430.5L985.692 386.797V840Z" fill="#484BF2"/>
<path d="M823.564 423.122H808.702V839.716H823.564V423.122Z" fill="#484BF2"/>
<path d="M865.987 411.487H851.125V840H865.987V411.487Z" fill="#484BF2"/>
<path d="M908.41 399.284H893.549V840H908.41V399.284Z" fill="#484BF2"/>
<path d="M950.834 389.351H935.973V840H950.834V389.351Z" fill="#484BF2"/>
<path d="M993.257 378.851H978.396V840H993.257V378.851Z" fill="#484BF2"/>
<path opacity="0.29" d="M847.343 458.027H827.617V489.811H847.343V458.027Z" fill="#484BF2"/>
<path opacity="0.29" d="M889.496 458.027H869.771V489.811H889.496V458.027Z" fill="#484BF2"/>
<path d="M931.919 458.027H912.193V489.811H931.919V458.027Z" fill="#484BF2"/>
<path opacity="0.29" d="M974.342 458.027H954.616V489.811H974.342V458.027Z" fill="#484BF2"/>
<path d="M847.343 513.365H827.617V545.148H847.343V513.365Z" fill="#484BF2"/>
<path d="M889.496 513.365H869.771V545.148H889.496V513.365Z" fill="#484BF2"/>
<path opacity="0.29" d="M931.919 513.365H912.193V545.148H931.919V513.365Z" fill="#484BF2"/>
<path opacity="0.29" d="M974.342 513.365H954.616V545.148H974.342V513.365Z" fill="#484BF2"/>
<path opacity="0.29" d="M847.343 568.419H827.617V600.203H847.343V568.419Z" fill="#484BF2"/>
<path opacity="0.29" d="M889.496 568.419H869.771V600.203H889.496V568.419Z" fill="#484BF2"/>
<path opacity="0.29" d="M931.919 568.419H912.193V600.203H931.919V568.419Z" fill="#484BF2"/>
<path d="M974.342 568.419H954.616V600.203H974.342V568.419Z" fill="#484BF2"/>
<path opacity="0.29" d="M847.343 623.473H827.617V655.256H847.343V623.473Z" fill="#484BF2"/>
<path d="M889.496 623.473H869.771V655.256H889.496V623.473Z" fill="#484BF2"/>
<path opacity="0.29" d="M931.919 623.473H912.193V655.256H931.919V623.473Z" fill="#484BF2"/>
<path opacity="0.29" d="M974.342 623.473H954.616V655.256H974.342V623.473Z" fill="#484BF2"/>
<path opacity="0.29" d="M847.343 678.527H827.617V710.311H847.343V678.527Z" fill="#484BF2"/>
<path opacity="0.29" d="M889.496 678.527H869.771V710.311H889.496V678.527Z" fill="#484BF2"/>
<path d="M931.919 678.527H912.193V710.311H931.919V678.527Z" fill="#484BF2"/>
<path opacity="0.29" d="M974.342 678.527H954.616V710.311H974.342V678.527Z" fill="#484BF2"/>
<path d="M847.343 733.581H827.617V765.365H847.343V733.581Z" fill="#484BF2"/>
<path d="M889.496 733.581H869.771V765.365H889.496V733.581Z" fill="#484BF2"/>
<path opacity="0.29" d="M931.919 733.581H912.193V765.365H931.919V733.581Z" fill="#484BF2"/>
<path opacity="0.29" d="M974.342 733.581H954.616V765.365H974.342V733.581Z" fill="#484BF2"/>
<path opacity="0.29" d="M847.343 788.919H827.617V820.703H847.343V788.919Z" fill="#484BF2"/>
<path d="M889.496 788.919H869.771V820.703H889.496V788.919Z" fill="#484BF2"/>
<path opacity="0.29" d="M931.919 788.919H912.193V820.703H931.919V788.919Z" fill="#484BF2"/>
<path d="M974.342 788.919H954.616V820.703H974.342V788.919Z" fill="#484BF2"/>
<path d="M332.318 450.081V454.337H328.265V466.256H399.331V839.999H282.869V485.837V466.256V454.337H278.546V450.081H332.318Z" fill="#484BF2"/>
<path d="M630.362 619.783H530.653V840H630.362V619.783Z" fill="#484BF2"/>
<path d="M176.945 569.27H95.8818V840H176.945V569.27Z" fill="#484BF2"/>
<path d="M249.362 625.459H161.003V839.716H249.362V625.459Z" fill="#484BF2"/>
<path d="M161.003 558.203H125.064V590.554H161.003V558.203Z" fill="#484BF2"/>
<path d="M261.251 622.054H166.947V630H261.251V622.054Z" fill="#484BF2"/>
<path d="M339.073 717.405H239.905V839.716H339.073V717.405Z" fill="#484BF2"/>
<path d="M0.227325 618.081H-80.2959V840H0.227325V618.081Z" fill="#484BF2"/>
<path d="M125.066 757.986H0.227539V840H125.066V757.986Z" fill="#484BF2"/>
<path d="M561.188 804.527H366.635V839.716H561.188V804.527Z" fill="#484BF2"/>
<path d="M905.979 804.527H711.426V839.716H905.979V804.527Z" fill="#484BF2"/>
<path d="M553.622 700.946H479.584L448.239 822.122H553.622V700.946Z" fill="#484BF2"/>
<path d="M589.83 524.716H587.668V659.23H589.83V524.716Z" fill="#484BF2"/>
<path d="M600.639 570.122H597.937V649.581H600.639V570.122Z" fill="#484BF2"/>
<path d="M620.634 584.311H583.345V623.473H620.634V584.311Z" fill="#484BF2"/>
<path d="M626.308 581.189H576.859V584.594H626.308V581.189Z" fill="#484BF2"/>
<path d="M733.043 726.202H612.258V839.716H733.043V726.202Z" fill="#484BF2"/>
<path d="M787.625 601.338H710.074V820.419H787.625V601.338Z" fill="#484BF2"/>
<path d="M1137.28 642.486H1013.25V840H1137.28V642.486Z" fill="#484BF2"/>
<path d="M1115.66 767.067H974.342V839.716H1115.66V767.067Z" fill="#484BF2"/>
<path d="M1222.4 813.892H1130.52V840H1222.4V813.892Z" fill="#484BF2"/>
<path d="M1421.54 767.067H1272.12V839.716H1421.54V767.067Z" fill="#484BF2"/>
<path d="M1331.72 839.908H1517.9V576.557H1331.72V839.908Z" fill="#484BF2"/>
<path d="M1326.96 576.804H1528.81V566.588H1326.96V576.804Z" fill="#484BF2"/>
<path d="M1427.92 592.51H1509.8V539.158H1427.92V592.51Z" fill="#484BF2"/>
<path d="M1387.34 571.596H1401.12V539.245H1387.34V571.596Z" fill="#484BF2"/>
<path d="M1358.59 571.596H1373.72V539.245H1358.59V571.596Z" fill="#484BF2"/>
<g opacity="0.52">
<path opacity="0.52" d="M110.474 582.892H104.259V589.419H110.474V582.892Z" fill="white"/>
<path opacity="0.52" d="M122.904 582.892H116.689V589.419H122.904V582.892Z" fill="white"/>
<path opacity="0.52" d="M110.474 597.932H104.259V604.459H110.474V597.932Z" fill="white"/>
<path opacity="0.52" d="M122.904 597.932H116.689V604.459H122.904V597.932Z" fill="white"/>
<path opacity="0.52" d="M110.474 612.689H104.259V619.216H110.474V612.689Z" fill="white"/>
<path opacity="0.52" d="M136.685 582.892H130.47V589.419H136.685V582.892Z" fill="white"/>
</g>
<path opacity="0.5" d="M557.675 389.351H553.622V413.756H557.675V389.351Z" fill="white"/>
<path opacity="0.5" d="M571.997 389.351H567.943V413.756H571.997V389.351Z" fill="white"/>
<path opacity="0.5" d="M586.318 389.351H582.265V413.756H586.318V389.351Z" fill="white"/>
<path opacity="0.5" d="M600.91 389.351H596.856V413.756H600.91V389.351Z" fill="white"/>
<path opacity="0.5" d="M615.231 389.351H611.178V413.756H615.231V389.351Z" fill="white"/>
<path opacity="0.5" d="M629.822 389.351H625.769V413.756H629.822V389.351Z" fill="white"/>
<path opacity="0.5" d="M644.143 389.351H640.09V413.756H644.143V389.351Z" fill="white"/>
<path opacity="0.5" d="M658.464 389.351H654.411V413.756H658.464V389.351Z" fill="white"/>
<path opacity="0.5" d="M673.056 389.351H669.003V413.756H673.056V389.351Z" fill="white"/>
<path opacity="0.5" d="M687.377 389.351H683.324V413.756H687.377V389.351Z" fill="white"/>
<path opacity="0.5" d="M701.969 389.351H697.916V413.756H701.969V389.351Z" fill="white"/>
<path opacity="0.5" d="M557.675 423.122H553.622V447.527H557.675V423.122Z" fill="white"/>
<path opacity="0.5" d="M571.997 423.122H567.943V447.527H571.997V423.122Z" fill="white"/>
<path opacity="0.5" d="M586.318 423.122H582.265V447.527H586.318V423.122Z" fill="white"/>
<path opacity="0.5" d="M600.91 423.122H596.856V447.527H600.91V423.122Z" fill="white"/>
<path opacity="0.5" d="M615.231 423.122H611.178V447.527H615.231V423.122Z" fill="white"/>
<path opacity="0.5" d="M629.822 423.122H625.769V447.527H629.822V423.122Z" fill="white"/>
<path opacity="0.5" d="M644.143 423.122H640.09V447.527H644.143V423.122Z" fill="white"/>
<path opacity="0.5" d="M658.464 423.122H654.411V447.527H658.464V423.122Z" fill="white"/>
<path opacity="0.5" d="M673.056 423.122H669.003V447.527H673.056V423.122Z" fill="white"/>
<path opacity="0.5" d="M687.377 423.122H683.324V447.527H687.377V423.122Z" fill="white"/>
<path opacity="0.5" d="M701.969 423.122H697.916V447.527H701.969V423.122Z" fill="white"/>
<path opacity="0.5" d="M557.675 457.176H553.622V481.581H557.675V457.176Z" fill="white"/>
<path opacity="0.5" d="M571.997 457.176H567.943V481.581H571.997V457.176Z" fill="white"/>
<path opacity="0.5" d="M586.318 457.176H582.265V481.581H586.318V457.176Z" fill="white"/>
<path opacity="0.5" d="M600.91 457.176H596.856V481.581H600.91V457.176Z" fill="white"/>
<path opacity="0.5" d="M615.231 457.176H611.178V481.581H615.231V457.176Z" fill="white"/>
<path opacity="0.5" d="M629.822 457.176H625.769V481.581H629.822V457.176Z" fill="white"/>
<path opacity="0.5" d="M644.143 457.176H640.09V481.581H644.143V457.176Z" fill="white"/>
<path opacity="0.5" d="M658.464 457.176H654.411V481.581H658.464V457.176Z" fill="white"/>
<path opacity="0.5" d="M673.056 457.176H669.003V481.581H673.056V457.176Z" fill="white"/>
<path opacity="0.5" d="M687.377 457.176H683.324V481.581H687.377V457.176Z" fill="white"/>
<path opacity="0.5" d="M701.969 457.176H697.916V481.581H701.969V457.176Z" fill="white"/>
<path opacity="0.5" d="M600.91 490.946H596.856V515.351H600.91V490.946Z" fill="white"/>
<path opacity="0.5" d="M615.231 490.946H611.178V515.351H615.231V490.946Z" fill="white"/>
<path opacity="0.5" d="M629.822 490.946H625.769V515.351H629.822V490.946Z" fill="white"/>
<path opacity="0.5" d="M644.143 490.946H640.09V515.351H644.143V490.946Z" fill="white"/>
<path opacity="0.5" d="M658.464 490.946H654.411V515.351H658.464V490.946Z" fill="white"/>
<path opacity="0.5" d="M673.056 490.946H669.003V515.351H673.056V490.946Z" fill="white"/>
<path opacity="0.5" d="M687.377 490.946H683.324V515.351H687.377V490.946Z" fill="white"/>
<path opacity="0.5" d="M701.969 490.946H697.916V515.351H701.969V490.946Z" fill="white"/>
<path opacity="0.5" d="M615.231 526.703H611.178V551.108H615.231V526.703Z" fill="white"/>
<path opacity="0.5" d="M629.822 526.703H625.769V551.108H629.822V526.703Z" fill="white"/>
<path opacity="0.5" d="M644.143 526.703H640.09V551.108H644.143V526.703Z" fill="white"/>
<path opacity="0.5" d="M658.464 526.703H654.411V551.108H658.464V526.703Z" fill="white"/>
<path opacity="0.5" d="M673.056 526.703H669.003V551.108H673.056V526.703Z" fill="white"/>
<path opacity="0.5" d="M687.377 526.703H683.324V551.108H687.377V526.703Z" fill="white"/>
<path opacity="0.5" d="M701.969 526.703H697.916V551.108H701.969V526.703Z" fill="white"/>
<path opacity="0.33" d="M842.479 449.797H832.481V476.189H842.479V449.797Z" fill="white"/>
<path opacity="0.33" d="M842.479 500.027H832.481V526.419H842.479V500.027Z" fill="white"/>
<path opacity="0.33" d="M842.479 550.541H832.481V576.932H842.479V550.541Z" fill="white"/>
<path opacity="0.33" d="M842.479 600.77H832.481V627.162H842.479V600.77Z" fill="white"/>
<path opacity="0.33" d="M842.479 648.446H832.481V674.838H842.479V648.446Z" fill="white"/>
<path opacity="0.33" d="M842.479 698.676H832.481V725.067H842.479V698.676Z" fill="white"/>
<path opacity="0.33" d="M884.902 449.797H874.904V476.189H884.902V449.797Z" fill="white"/>
<path opacity="0.33" d="M884.902 500.027H874.904V526.419H884.902V500.027Z" fill="white"/>
<path opacity="0.33" d="M884.902 550.541H874.904V576.932H884.902V550.541Z" fill="white"/>
<path opacity="0.33" d="M884.902 600.77H874.904V627.162H884.902V600.77Z" fill="white"/>
<path opacity="0.33" d="M884.902 648.446H874.904V674.838H884.902V648.446Z" fill="white"/>
<path opacity="0.33" d="M884.902 698.676H874.904V725.067H884.902V698.676Z" fill="white"/>
<path opacity="0.33" d="M927.326 449.797H917.328V476.189H927.326V449.797Z" fill="white"/>
<path opacity="0.33" d="M927.326 500.027H917.328V526.419H927.326V500.027Z" fill="white"/>
<path opacity="0.33" d="M927.326 550.541H917.328V576.932H927.326V550.541Z" fill="white"/>
<path opacity="0.33" d="M927.326 600.77H917.328V627.162H927.326V600.77Z" fill="white"/>
<path opacity="0.33" d="M927.326 648.446H917.328V674.838H927.326V648.446Z" fill="white"/>
<path opacity="0.33" d="M927.326 698.676H917.328V725.067H927.326V698.676Z" fill="white"/>
<path opacity="0.33" d="M969.75 449.797H959.752V476.189H969.75V449.797Z" fill="white"/>
<path opacity="0.33" d="M969.75 500.027H959.752V526.419H969.75V500.027Z" fill="white"/>
<path opacity="0.33" d="M969.75 550.541H959.752V576.932H969.75V550.541Z" fill="white"/>
<path opacity="0.33" d="M969.75 600.77H959.752V627.162H969.75V600.77Z" fill="white"/>
<path opacity="0.33" d="M969.75 648.446H959.752V674.838H969.75V648.446Z" fill="white"/>
<path opacity="0.33" d="M969.75 698.676H959.752V725.067H969.75V698.676Z" fill="white"/>
<path opacity="0.5" d="M681.162 82.2974H673.056V105.284H681.162V82.2974Z" fill="white"/>
<path opacity="0.5" d="M701.429 82.2974H693.322V105.284H701.429V82.2974Z" fill="white"/>
<path opacity="0.5" d="M721.965 82.2974H713.858V105.284H721.965V82.2974Z" fill="white"/>
<path opacity="0.5" d="M742.23 82.2974H734.124V105.284H742.23V82.2974Z" fill="white"/>
<path opacity="0.5" d="M681.162 120.608H673.056V143.594H681.162V120.608Z" fill="white"/>
<path opacity="0.5" d="M701.429 120.608H693.322V143.594H701.429V120.608Z" fill="white"/>
<path opacity="0.5" d="M721.965 120.608H713.858V143.594H721.965V120.608Z" fill="white"/>
<path opacity="0.5" d="M742.23 120.608H734.124V143.594H742.23V120.608Z" fill="white"/>
<path opacity="0.5" d="M681.162 159.203H673.056V182.189H681.162V159.203Z" fill="white"/>
<path opacity="0.5" d="M701.429 159.203H693.322V182.189H701.429V159.203Z" fill="white"/>
<path opacity="0.5" d="M765.198 82.2974H757.092V105.284H765.198V82.2974Z" fill="white"/>
<path opacity="0.4" d="M130.2 315.851H125.066V336.851H130.2V315.851Z" fill="white"/>
<path opacity="0.4" d="M148.844 315.851H143.71V336.851H148.844V315.851Z" fill="white"/>
<path opacity="0.4" d="M170.461 315.851H165.327V336.851H170.461V315.851Z" fill="white"/>
<path opacity="0.4" d="M188.836 315.851H183.702V336.851H188.836V315.851Z" fill="white"/>
<path opacity="0.4" d="M89.3977 315.851H84.2637V336.851H89.3977V315.851Z" fill="white"/>
<path opacity="0.4" d="M107.773 315.851H102.639V336.851H107.773V315.851Z" fill="white"/>
<path opacity="0.4" d="M130.2 352.459H125.066V373.459H130.2V352.459Z" fill="white"/>
<path opacity="0.4" d="M148.844 352.459H143.71V373.459H148.844V352.459Z" fill="white"/>
<path opacity="0.4" d="M170.461 352.459H165.327V373.459H170.461V352.459Z" fill="white"/>
<path opacity="0.4" d="M188.836 352.459H183.702V373.459H188.836V352.459Z" fill="white"/>
<path opacity="0.4" d="M89.3977 352.459H84.2637V373.459H89.3977V352.459Z" fill="white"/>
<path opacity="0.4" d="M107.773 352.459H102.639V373.459H107.773V352.459Z" fill="white"/>
<path opacity="0.4" d="M130.2 389.351H125.066V410.351H130.2V389.351Z" fill="white"/>
<path opacity="0.4" d="M148.844 389.351H143.71V410.351H148.844V389.351Z" fill="white"/>
<path opacity="0.4" d="M170.461 389.351H165.327V410.351H170.461V389.351Z" fill="white"/>
<path opacity="0.4" d="M188.836 389.351H183.702V410.351H188.836V389.351Z" fill="white"/>
<path opacity="0.4" d="M89.3977 389.351H84.2637V410.351H89.3977V389.351Z" fill="white"/>
<path opacity="0.4" d="M107.773 389.351H102.639V410.351H107.773V389.351Z" fill="white"/>
<path opacity="0.5" d="M1109.72 477.892H1101.61V510.527H1109.72V477.892Z" fill="white"/>
<path opacity="0.5" d="M1134.58 477.892H1126.47V510.527H1134.58V477.892Z" fill="white"/>
<path opacity="0.5" d="M1158.09 477.892H1149.98V510.527H1158.09V477.892Z" fill="white"/>
<path opacity="0.33" d="M1186.19 429.933H1179.7V458.595H1186.19V429.933Z" fill="white"/>
<path opacity="0.33" d="M1219.16 429.933H1212.67V458.595H1219.16V429.933Z" fill="white"/>
<path opacity="0.33" d="M1252.12 429.933H1245.64V458.595H1252.12V429.933Z" fill="white"/>
<path opacity="0.33" d="M1284.82 429.933H1278.33V458.595H1284.82V429.933Z" fill="white"/>
<path opacity="0.33" d="M1186.19 489.243H1179.7V517.905H1186.19V489.243Z" fill="white"/>
<path opacity="0.33" d="M1219.16 489.243H1212.67V517.905H1219.16V489.243Z" fill="white"/>
<path opacity="0.33" d="M1252.12 489.243H1245.64V517.905H1252.12V489.243Z" fill="white"/>
<path opacity="0.33" d="M1284.82 489.243H1278.33V517.905H1284.82V489.243Z" fill="white"/>
<path opacity="0.33" d="M1186.19 549.689H1179.7V578.351H1186.19V549.689Z" fill="white"/>
<path opacity="0.33" d="M1219.16 549.689H1212.67V578.351H1219.16V549.689Z" fill="white"/>
<path opacity="0.33" d="M1252.12 549.689H1245.64V578.351H1252.12V549.689Z" fill="white"/>
<path opacity="0.33" d="M1284.82 549.689H1278.33V578.351H1284.82V549.689Z" fill="white"/>
<path opacity="0.33" d="M1186.19 610.419H1179.7V639.081H1186.19V610.419Z" fill="white"/>
<path opacity="0.33" d="M1219.16 610.419H1212.67V639.081H1219.16V610.419Z" fill="white"/>
<path opacity="0.33" d="M1252.12 610.419H1245.64V639.081H1252.12V610.419Z" fill="white"/>
<path opacity="0.33" d="M1284.82 610.419H1278.33V639.081H1284.82V610.419Z" fill="white"/>
<path opacity="0.33" d="M1186.19 665.473H1179.7V694.135H1186.19V665.473Z" fill="white"/>
<path opacity="0.33" d="M1219.16 665.473H1212.67V694.135H1219.16V665.473Z" fill="white"/>
<path opacity="0.33" d="M1252.12 665.473H1245.64V694.135H1252.12V665.473Z" fill="white"/>
<path opacity="0.33" d="M1186.19 726.771H1179.7V755.433H1186.19V726.771Z" fill="white"/>
<path opacity="0.33" d="M1219.16 726.771H1212.67V755.433H1219.16V726.771Z" fill="white"/>
<path opacity="0.33" d="M1252.12 726.771H1245.64V755.433H1252.12V726.771Z" fill="white"/>
<path opacity="0.33" d="M1284.82 665.473H1278.33V694.135H1284.82V665.473Z" fill="white"/>
</g>
</svg>
